# xmcd CD database file
#
# Track frame offsets:
#	150
#	11575
#	25402
#	36814
#	49229
#	60756
#	73404
#	87889
#	101050
#	110224
#	121149
#	132963
#	143140
#	156067
#	169579
#	181701
#	195988
#	207417
#	218069
#	230873
#
# Disc length: 3248 seconds
#
# Revision: 5
# Processed by: cddbd v1.5.2PL0 Copyright (c) Steve Scherf et al.
# Submitted via: CDex 1.51
#
DISCID=1a0cae14
DTITLE=Various Artist - The Classic RHYTHM+BLUES Collection: The Sixties
DYEAR=2001
DGENRE=R&B
TTITLE0=Sam And Dave - Hold On I'm Comin'
TTITLE1=Eddie Floyd - Knock On Wood
TTITLE2=Wilson Pickett - In The Midnight Hour
TTITLE3=Aretha Framklin - Chain Of Fools
TTITLE4=Clarence Carter - Slip Away
TTITLE5=Jerry Butler - He Will Break Your Heart
TTITLE6=Otis Redding - I've Been Loving You Too Long (To Stop Now)
TTITLE7=Wilson Pickett - 634-5789
TTITLE8=Pips, The - Every Beat Of My Heart
TTITLE9=Aretha Franklin - Respect
TTITLE10=Sam And Dave - Soul Man
TTITLE11=Marcels, The - Blue Moon
TTITLE12=Dee Clark - Raindrops
TTITLE13=Ben E. King - Stand By Me
TTITLE14=Otis Redding - (Sittin' On) The Dock Of The Bay
TTITLE15=Archie Bell And The Drells - Tighten Up
TTITLE16=Solomon Burke - If You Need Me
TTITLE17=Gene Chandler - Duke Of Earl
TTITLE18=Booker T. And The MG's - Green Onions
TTITLE19=Percy Sledge - When A Man Loves A Woman
EXTD=YEAR: 2001
EXTT0=
EXTT1=
EXTT2=
EXTT3=
EXTT4=
EXTT5=
EXTT6=
EXTT7=
EXTT8=
EXTT9=
EXTT10=
EXTT11=
EXTT12=
EXTT13=
EXTT14=
EXTT15=
EXTT16=
EXTT17=
EXTT18=
EXTT19=
PLAYORDER=
